<?xml version="1.0" encoding="utf-8"?>
<!-- Uploaded to: SVG Repo, www.svgrepo.com, Generator: SVG Repo Mixer Tools -->
<svg width="800px" height="800px" viewBox="0 0 1024 1024" class="icon"  version="1.1" xmlns="http://www.w3.org/2000/svg"><path d="M948.6 702c-13.8 0-20.7-9.8-25.7-17-5.1-7.3-7.7-10.2-12.7-10.2s-7.5 3-12.7 10.2c-5.1 7.2-12 17-25.7 17s-20.7-9.8-25.7-17c-5.1-7.3-7.7-10.2-12.7-10.2-5 0-7.5 3-12.7 10.2-5.1 7.2-12 17-25.7 17-13.8 0-20.7-9.8-25.7-17-5.1-7.3-7.7-10.2-12.7-10.2-4.4 0-8-3.6-8-8s3.6-8 8-8c13.8 0 20.7 9.8 25.7 17 5.1 7.3 7.7 10.2 12.7 10.2 5 0 7.5-3 12.7-10.2 5.1-7.2 12-17 25.7-17 13.8 0 20.7 9.8 25.7 17 5.1 7.3 7.7 10.2 12.7 10.2 5 0 7.5-3 12.7-10.2 5.1-7.2 12-17 25.7-17s20.7 9.8 25.7 17c5.1 7.3 7.7 10.2 12.7 10.2 4.4 0 8 3.6 8 8s-3.6 8-8 8zM948.6 652c-13.8 0-20.7-9.8-25.7-17-5.1-7.3-7.7-10.2-12.7-10.2s-7.5 3-12.7 10.2c-5.1 7.2-12 17-25.7 17s-20.7-9.8-25.7-17c-5.1-7.3-7.7-10.2-12.7-10.2-5 0-7.5 3-12.7 10.2-5.1 7.2-12 17-25.7 17-13.8 0-20.7-9.8-25.7-17-5.1-7.3-7.7-10.2-12.7-10.2-4.4 0-8-3.6-8-8s3.6-8 8-8c13.8 0 20.7 9.8 25.7 17 5.1 7.3 7.7 10.2 12.7 10.2 5 0 7.5-3 12.7-10.2 5.1-7.2 12-17 25.7-17 13.8 0 20.7 9.8 25.7 17 5.1 7.3 7.7 10.2 12.7 10.2 5 0 7.5-3 12.7-10.2 5.1-7.2 12-17 25.7-17s20.7 9.8 25.7 17c5.1 7.3 7.7 10.2 12.7 10.2 4.4 0 8 3.6 8 8s-3.6 8-8 8zM239.6 279.9c-12.9 0-19.2-10.1-23.8-17.4-4.3-6.9-6.5-9.9-10.2-9.9s-5.9 3-10.2 9.9c-4.6 7.3-10.9 17.4-23.8 17.4s-19.2-10.1-23.8-17.4c-4.3-6.9-6.5-9.9-10.2-9.9s-5.9 3-10.2 9.9c-4.6 7.3-10.9 17.4-23.8 17.4s-19.2-10.1-23.8-17.4c-4.3-6.9-6.5-9.9-10.2-9.9-4.4 0-8-3.6-8-8s3.6-8 8-8c12.9 0 19.2 10.1 23.8 17.4 4.3 6.9 6.5 9.9 10.2 9.9s5.9-3 10.2-9.9c4.6-7.3 10.9-17.4 23.8-17.4s19.2 10.1 23.8 17.4c4.3 6.9 6.5 9.9 10.2 9.9 3.7 0 5.9-3 10.2-9.9 4.6-7.3 10.9-17.4 23.8-17.4s19.2 10.1 23.8 17.4c4.3 6.9 6.5 9.9 10.2 9.9 4.4 0 8 3.6 8 8s-3.6 8-8 8zM261.5 229.9c-13.8 0-20.7-9.8-25.7-17-5.1-7.3-7.7-10.2-12.7-10.2-5 0-7.5 3-12.7 10.2-5.1 7.2-12 17-25.7 17-13.8 0-20.7-9.8-25.7-17-5.1-7.3-7.7-10.2-12.7-10.2s-7.5 3-12.7 10.2c-5.1 7.2-12 17-25.7 17s-20.7-9.8-25.7-17c-5.1-7.3-7.7-10.2-12.7-10.2-4.4 0-8-3.6-8-8s3.6-8 8-8c13.8 0 20.7 9.8 25.7 17 5.1 7.3 7.7 10.2 12.7 10.2s7.5-3 12.7-10.2c5.1-7.2 12-17 25.7-17s20.7 9.8 25.7 17c5.1 7.3 7.7 10.2 12.7 10.2 5 0 7.5-3 12.7-10.2 5.1-7.2 12-17 25.7-17s20.7 9.8 25.7 17c5.1 7.3 7.7 10.2 12.7 10.2 4.4 0 8 3.6 8 8s-3.5 8-8 8z" fill="#9A2D2F" /><path d="M349.6 102.3m-32 0a32 32 0 1 0 64 0 32 32 0 1 0-64 0Z" fill="#FFEB4D" /><path d="M349.6 142.3c-22.1 0-40-17.9-40-40s17.9-40 40-40 40 17.9 40 40-17.9 40-40 40z m0-64c-13.2 0-24 10.8-24 24s10.8 24 24 24 24-10.8 24-24-10.8-24-24-24z" fill="#9A2D2F" /><path d="M905.5 950.3h-790l528.7-304z" fill="#DAE5FF" /><path d="M795.5 950.3h-680l528.7-304z" fill="#C0FCD0" /><path d="M599.5 949.8h-296l80-715.3h136z" fill="#DAE5FF" /><path d="M353.5 298.3h196v64h-196z" fill="#FFEB4D" /><path d="M531.5 234.3h-160v-14.9c0-44.8 35.8-81.1 80-81.1s80 36.3 80 81.1v14.9z" fill="#F7D4FF" /><path d="M328.5 726.7h246.1l-21.9-196.1H350.4z" fill="#FFACC2" /><path d="M435.5 902.3h32v48h-32z" fill="#FFFFFF" /><path d="M920.9 942.3h-11.7L650.3 641.1l-0.3-0.3c-0.8-0.8-1.7-1.4-2.6-1.8h-0.1c-0.2-0.1-0.4-0.2-0.6-0.2h-0.1-0.1c-0.2-0.1-0.4-0.1-0.6-0.1h-0.2c-0.2 0-0.4-0.1-0.6-0.1h-1.9c-0.1 0-0.3 0-0.4 0.1-0.1 0-0.2 0.1-0.4 0.1-0.1 0-0.2 0.1-0.3 0.1-0.1 0-0.3 0.1-0.4 0.1-0.1 0-0.2 0.1-0.3 0.1-0.1 0.1-0.3 0.1-0.4 0.2h-0.1l-0.6 0.3L577 676l1.9 17.3 61.9-35.6 141.8 284.8H606.7l-24.1-215.8v-0.8l-21.9-196.1c0-0.3-0.1-0.5-0.1-0.8l-17.7-158.6h6.8c4.4 0 8-3.6 8-8v-64c0-4.4-3.6-8-8-8h-15.8l-5.4-48h3.1c4.4 0 8-3.6 8-8v-14.9c0-44.5-32.3-81.5-74.5-88.1 1.2-2.3 1.9-4.8 1.9-7.6 0-5.9-3.2-11.1-8-13.8V90.3c0-4.4-3.6-8-8-8s-8 3.6-8 8v19.6c-4.8 2.8-8 7.9-8 13.8 0 2.8 0.7 5.5 2 7.8-41.6 7-73.5 43.8-73.5 87.9v14.9c0 4.4 3.6 8 8 8h3.1l-5.4 48h-15.7c-4.4 0-8 3.6-8 8v64c0 4.4 3.6 8 8 8h6.7l-51.4 459.6-195.4 112.4H96.9c-4.4 0-8 3.6-8 8s3.6 8 8 8h824c4.4 0 8-3.6 8-8s-3.5-8-8-8z m-477.4-0.5v-31.5h16v31.5h-16z m236.4-241.6l208.2 242.2h-87.6L679.9 700.2zM379.5 219.5c0-40.3 32.3-73.1 72-73.1s72 32.8 72 73.1v6.9h-144v-6.9z m138.2 70.8H385.3l5.3-47.8h121.7l5.4 47.8z m-156.2 16h180v48H361.6v-48z m14.9 64h150.3l17 152.3H359.3l17.1-152.3z m-18.8 168.3h187.9l20.1 180.1H337.5l20.1-180.1z m-22 196.1h231.8l23.2 207.2h-115v-39.5c0-4.4-3.6-8-8-8h-32c-4.4 0-8 3.6-8 8v39.5H312.4l23.2-207.2z m-28.9 115l-10.4 92.7H145.5l161.2-92.7z" fill="#9A2D2F" /><path d="M461.6 147c-3.3-0.5-6.7-0.7-10.1-0.7-39.7 0-72 32.8-72 73.1v6.9h1.9c39.2-16 66.5-47.3 80.2-79.3z" fill="#FFFFFF" /></svg>